<svg xmlns="http://www.w3.org/2000/svg" width="1200" height="630" viewBox="0 0 1200 630" role="img" aria-label="MediaPipe hand tracking demo cover">
  <defs>
    <linearGradient id="bg" x1="0%" y1="0%" x2="100%" y2="100%">
      <stop offset="0%" stop-color="#3d4f54"/>
      <stop offset="100%" stop-color="#596e73"/>
    </linearGradient>
    <filter id="glow" x="-20%" y="-20%" width="140%" height="140%">
      <feGaussianBlur stdDeviation="3" result="blur"/>
      <feMerge>
        <feMergeNode in="blur"/>
        <feMergeNode in="SourceGraphic"/>
      </feMerge>
    </filter>
  </defs>
  <rect width="1200" height="630" fill="url(#bg)"/>
  <g fill="none" stroke-linecap="round" stroke-linejoin="round" filter="url(#glow)">
    <path d="M420 380 L420 300 L460 260 L500 240 L540 250 L580 280 L600 320 L610 360 L590 400 L550 420 L500 430 L460 420 Z" stroke="#00ff66" stroke-width="4"/>
    <circle cx="420" cy="380" r="8" fill="#00ff66"/>
    <circle cx="460" cy="260" r="8" fill="#00ff66"/>
    <circle cx="500" cy="240" r="8" fill="#00ff66"/>
    <circle cx="540" cy="250" r="8" fill="#00ff66"/>
    <circle cx="580" cy="280" r="8" fill="#00ff66"/>
    <circle cx="600" cy="320" r="8" fill="#00ff66"/>
    <circle cx="610" cy="360" r="8" fill="#ff3355"/>
    <circle cx="590" cy="400" r="8" fill="#ff3355"/>
    <circle cx="550" cy="420" r="8" fill="#ff3355"/>
    <circle cx="500" cy="430" r="8" fill="#ff3355"/>
    <path d="M720 400 L740 310 L780 270 L820 255 L860 265 L900 300 L920 350 L915 395 L880 430 L830 445 L780 440 L740 420 Z" stroke="#ff3355" stroke-width="4"/>
    <circle cx="740" cy="310" r="7" fill="#ff3355"/>
    <circle cx="820" cy="255" r="7" fill="#ff3355"/>
    <circle cx="900" cy="300" r="7" fill="#00ff66"/>
    <circle cx="915" cy="395" r="7" fill="#00ff66"/>
  </g>
  <rect x="880" y="48" width="280" height="280" rx="12" fill="#99999944" stroke="#cccccc66" stroke-width="2"/>
  <g stroke="#cccccc" stroke-width="1.5" opacity="0.7">
    <line x1="920" y1="88" x2="1120" y2="88"/>
    <line x1="920" y1="148" x2="1120" y2="148"/>
    <line x1="920" y1="208" x2="1120" y2="208"/>
    <line x1="920" y1="268" x2="1120" y2="268"/>
    <line x1="960" y1="48" x2="960" y2="328"/>
    <line x1="1020" y1="48" x2="1020" y2="328"/>
    <line x1="1080" y1="48" x2="1080" y2="328"/>
  </g>
  <text x="64" y="120" fill="#ffffff" font-family="system-ui, sans-serif" font-size="52" font-weight="700">MediaPipe Hands</text>
  <text x="64" y="175" fill="#d0e8ec" font-family="system-ui, sans-serif" font-size="28">Real-time tracking in the browser</text>
  <text x="64" y="560" fill="#a8c4c8" font-family="system-ui, sans-serif" font-size="22">Webcam · Canvas overlay · 3D landmark grid</text>
</svg>
